<?xml version="1.0" encoding="utf-8"?>
<!-- Generator: Adobe Illustrator 19.0.0, SVG Export Plug-In . SVG Version: 6.00 Build 0)  -->
<svg version="1.1" id="Capa_1" xmlns="http://www.w3.org/2000/svg" xmlns:xlink="http://www.w3.org/1999/xlink" x="0px" y="0px"
	 viewBox="0 0 595.3 841.9" style="enable-background:new 0 0 595.3 841.9;" xml:space="preserve">
<g id="XMLID_2_">
	<g id="XMLID_75_">
		<g id="XMLID_93_">
			<path id="XMLID_95_" d="M410.3,84.6c-1.2,1-2.3,2-3.5,3.1c-1.3,1.2-2.6,2.6-3.8,3.9c-2.5,2.4-4.8,4.8-7,7.3h78.3v228.6v15.1
				c-0.5-1.9-1-3.8-1.6-5.8c-6-20.5-18-37.4-32.9-52.3c-17.2-17.1-35-33.7-52.4-50.8c-15.3-15-27.2-32.2-31.8-53.6
				c-6.9-31.6,1.2-58.4,21.3-81.3c2.2-2.5,4.5-4.9,7-7.3c1.3-1.3,2.5-2.7,3.8-3.9c1.1-1,2.3-2.1,3.5-3.1
				c17-14.7,36.4-25.4,57.1-34.2c1.6-0.7,3.2-1.4,4.7-2.1c-38.4,6.7-76,15.3-109.1,36.3c-3.6,2.3-7.1,4.7-10.6,7.2
				c-0.5,0.5-1,1.1-1.6,1.6c-2.2,1.8-4.2,3.6-6.2,5.4c-28.4,26.7-37.2,60.5-31.3,99.3c4.2,27.9,20.3,49.4,40.2,68.3
				c13.7,13,28.3,25.3,42.1,38.2c6.9,6.5,13.3,13.5,19.4,20.8c21.1,25.4,24.8,54,14.9,84.9c-8.1,25.2-22.1,47.3-36.4,69.1
				c-27.2,41.5-60,78.4-95.8,112.6c-10.2,9.8-20.8,19.2-31.3,28.7c-2.6,2.4-5.3,4.8-7.9,7.1c-2.8,2.4-5.6,4.8-8.4,7.1
				c-12.7,10.8-25.5,21.6-38.3,32.4c-5,4.2-10.2,8.2-15.3,12.4c-0.9,0.8-1.5,2.1-2.2,3.2c1.2,0,2.4,0,3.7,0c2-1.6,3.8-3.3,5.9-4.7
				c5.2-3.2,10.6-6,15.8-9.3c17.6-11.3,35.2-22.6,52.7-34c3.9-2.5,7.7-5,11.6-7.5c3.1-2.3,6.1-4.6,9.2-6.8
				c15.7-11.6,31.6-23.1,47-35.2c32.2-25.3,64.6-50.5,93.7-79.6c21.9-21.9,40.7-46.2,52-75.3c3.1-8,5.7-16.1,7.5-24.3v14.8v199.6
				H293.1c-3.1,2.3-6.2,4.5-9.2,6.8c-3.9,2.5-7.7,5-11.6,7.5h216.2V84.6H410.3z"/>
			<path id="XMLID_94_" d="M223.4,628c2.6-2.4,5.3-4.8,7.9-7.1H121.7V98.9h187.9c2-1.8,4-3.7,6.2-5.4c0.6-0.5,1.1-1.1,1.6-1.6
				c3.5-2.6,7-5,10.6-7.2H107.4v550.5H215C217.8,632.7,220.6,630.3,223.4,628z"/>
		</g>
	</g>
	<g id="XMLID_1_">
		<path id="XMLID_3_" d="M48.2,739.7v-21.3l-11.5,21.3h-3.1l-11.5-21.3v21.3h-4.3v-30.2H22l13.2,24.3l13.2-24.3h4.2v30.2H48.2z"/>
		<path id="XMLID_5_" d="M55.4,739.7v-30.2h4.3v30.2H55.4z"/>
		<path id="XMLID_7_" d="M90.1,718c-1.3-1.8-2.8-3.1-4.4-3.8c-1.7-0.8-3.7-1.1-6.2-1.1c-4,0-7.2,1-9.5,3.1c-2.3,2.1-3.5,4.9-3.5,8.4
			c0,3.5,1.1,6.3,3.3,8.4c2.2,2.1,5.3,3.1,9.2,3.1c2.3,0,4.4-0.4,6-1.2c1.7-0.8,3.2-2.1,4.7-3.8l3.7,2.2c-3.7,4.5-8.5,6.7-14.4,6.7
			c-5.1,0-9.2-1.4-12.3-4.1c-3.1-2.7-4.6-6.4-4.6-11.1c0-4.8,1.6-8.6,4.7-11.4c3.2-2.8,7.3-4.2,12.6-4.2c6.1,0,10.9,2.2,14.2,6.6
			L90.1,718z"/>
		<path id="XMLID_9_" d="M118.9,725c2.3,1.5,3.5,3.7,3.5,6.6v8.2h-4.3v-8c0-3.1-2.4-4.6-7.3-4.6H99.9v12.7h-4.3v-30.2h15.6
			c7.8,0,11.6,2.8,11.6,8.4C122.9,721.1,121.5,723.4,118.9,725z M111.3,713.4H99.9v9.8h10.7c2.4,0,4.3-0.4,5.7-1.2
			c1.5-0.9,2.3-2.2,2.3-3.9C118.6,714.9,116.2,713.4,111.3,713.4z"/>
		<path id="XMLID_12_" d="M153.9,735.9c-3.1,2.8-7.2,4.1-12.5,4.1c-5.3,0-9.4-1.4-12.5-4.1c-3-2.7-4.6-6.5-4.6-11.3
			c0-4.8,1.6-8.5,4.7-11.1c3-2.6,7.1-3.9,12.3-3.9s9.4,1.3,12.4,3.9c3.1,2.7,4.7,6.4,4.7,11.1C158.5,729.4,156.9,733.1,153.9,735.9z
			 M150.9,716.4c-2.2-1.9-5.4-2.9-9.5-2.9s-7.2,1-9.4,2.9c-2.2,1.9-3.3,4.7-3.3,8.2s1.1,6.4,3.3,8.4c2.2,2.1,5.3,3.1,9.4,3.1
			c4.1,0,7.2-1,9.5-3.1c2.2-2,3.3-4.9,3.3-8.4S153.1,718.3,150.9,716.4z"/>
		<path id="XMLID_15_" d="M183.7,738c-2.2,1.2-5,1.8-8.3,1.8h-15.5v-30.2h16c3,0,5.5,0.6,7.5,1.9c2.4,1.5,3.6,3.7,3.6,6.5
			c0,2.4-1.2,4.4-3.5,5.9c3,1.4,4.5,3.8,4.5,7.1C188,734.1,186.6,736.4,183.7,738z M180.9,714.5c-1.3-0.7-2.9-1.1-5-1.1h-11.7v8.7
			h11.6c2.1,0,3.7-0.4,5-1.1c1.3-0.7,1.9-1.8,1.9-3.3C182.8,716.3,182.1,715.2,180.9,714.5z M181.6,727.2c-1.5-0.8-3.4-1.2-5.9-1.2
			h-11.5v9.9h11.7c2.3,0,4.1-0.4,5.5-1.2c1.6-0.9,2.4-2.1,2.4-3.7C183.8,729.3,183.1,728,181.6,727.2z"/>
		<path id="XMLID_19_" d="M190,739.7v-30.2h4.3v26.3h19.1v3.9H190z"/>
		<path id="XMLID_21_" d="M238.8,739.7l-4.3-8.9h-14.9l-4.4,8.9h-4.8l15.2-30.2h3.3l14.6,30.2H238.8z M227.1,715.8l-5.6,11.1h11.1
			L227.1,715.8z"/>
		<path id="XMLID_25_" d="M267.3,735.9c-3.1,2.5-7.4,3.8-12.7,3.8h-11.5v-30.2h13.2c5.3,0,9.3,1.4,12,4.1c2.7,2.6,4,6.3,4,11.1
			C272.3,729.5,270.6,733.3,267.3,735.9z M265.2,716.3c-2-2-5-2.9-9-2.9h-8.8v22.5h7.3c4.3,0,7.6-0.9,9.9-2.8s3.5-4.7,3.5-8.4
			C268,721,267.1,718.2,265.2,716.3z"/>
		<path id="XMLID_31_" d="M274.5,739.7v-30.2h4.3v30.2H274.5z"/>
		<path id="XMLID_33_" d="M306.3,739.7l-20.4-23.5v23.5h-4.3v-30.2h3.8c2.6,3.1,6,7,10.3,11.9c5.2,5.8,8.6,9.6,10.2,11.5v-23.3h4.3
			v30.2H306.3z"/>
		<path id="XMLID_35_" d="M341.1,727.9h-12.9V724h17c0.2,1.6,0.3,2.7,0.3,3.3c0,4.1-1.7,7.4-4.9,9.7c-2.9,2.1-6.6,3.1-10.9,3.1
			c-5.3,0-9.5-1.3-12.7-3.9c-3.3-2.7-4.9-6.5-4.9-11.4c0-4.8,1.6-8.5,4.7-11.3c3.2-2.8,7.3-4.2,12.6-4.2c3.9,0,7.1,0.7,9.8,2.2
			c3.1,1.7,5.1,4.9,6.2,9.7h-4.4c-0.7-2.8-1.9-4.9-3.8-6.1c-1.8-1.3-4.4-1.9-7.8-1.9c-4.1,0-7.3,1-9.6,3.1c-2.3,2.1-3.4,4.9-3.4,8.5
			c0,3.7,1.2,6.5,3.5,8.5c2.3,2,5.6,3,9.8,3c3.2,0,5.9-0.8,8.1-2.3C339.9,732.4,341.1,730.4,341.1,727.9z"/>
		<path id="XMLID_37_" d="M384.6,740.6v-3.4c-2.4,2.2-5.4,3.3-8.8,3.3c-2.9,0-5.4-0.6-7.6-1.9c-2.6-1.5-3.9-3.6-3.9-6.2
			c0-3.6,2.7-6.8,8-9.5c-2.7-1.8-4-4-4-6.6c0-2.2,0.9-3.9,2.8-5.1c1.6-1,3.5-1.5,5.7-1.5c2.3,0,4.2,0.5,5.8,1.5
			c1.9,1.2,2.8,2.9,2.8,5.1c0,3.1-3,6.1-9.1,9.1c-2.7,1.4-4.5,2.4-5.4,3.2c-1.5,1.2-2.2,2.5-2.2,3.9c0,1.2,0.7,2.3,2.1,3.1
			c1.4,0.8,3,1.2,4.9,1.2c3.5,0,6-1.4,7.6-4.1c0.9-1.5,1.4-3.7,1.4-6.4h4.3v14.4H384.6z M380,714.2c-0.8-0.5-1.8-0.8-3-0.8
			c-1.3,0-2.3,0.3-3.1,0.8c-0.8,0.5-1.2,1.2-1.2,2c0,1.9,1.3,3.4,4,4.6c3-1.6,4.5-3.2,4.5-4.6C381.1,715.3,380.7,714.7,380,714.2z"
			/>
		<path id="XMLID_40_" d="M409.7,739.7v-30.2h4.3v26.3h19.1v3.9H409.7z"/>
		<path id="XMLID_42_" d="M458.5,739.7l-4.3-8.9h-14.9l-4.4,8.9h-4.8l15.2-30.2h3.3l14.6,30.2H458.5z M446.9,715.8l-5.6,11.1h11.1
			L446.9,715.8z"/>
		<path id="XMLID_45_" d="M476.7,740.1c-4,0-7.3-0.7-9.9-2.1c-3.3-1.8-4.9-4.6-4.9-8.4v-2h4.3v1.8c0,4.5,3.5,6.7,10.5,6.7
			c2.6,0,4.6-0.4,6.2-1.1c1.9-0.8,2.9-2,2.9-3.6c0-1.2-0.3-2-0.9-2.5c-0.6-0.5-1.6-1-3.2-1.4c-0.9-0.2-3-0.7-6.3-1.3
			c-3.9-0.8-6.6-1.5-8-2.2c-3.1-1.5-4.6-3.7-4.6-6.6c0-5.5,4.3-8.2,12.9-8.2c9,0,13.5,3.7,13.6,11h-4.2c-0.2-3.1-1.1-5.1-2.8-6
			c-1.5-0.8-3.7-1.2-6.7-1.2c-5.8,0-8.6,1.4-8.6,4.3c0,1.4,0.7,2.4,2.1,3.1c1.1,0.5,3.1,1,5.9,1.5c5.5,0.9,9.2,1.9,11.1,3
			c2.5,1.4,3.8,3.6,3.8,6.6c0,3-1.6,5.2-4.8,6.7C482.9,739.5,480,740.1,476.7,740.1z"/>
		<path id="XMLID_47_" d="M516.9,739.7V726h-20v13.8h-4.3v-30.2h4.3v12.6h20v-12.6h4.3v30.2H516.9z"/>
		<path id="XMLID_49_" d="M524,739.7v-30.2h25v3.9h-20.8v8.7h18.4v3.9h-18.4v9.9h21v3.9H524z"/>
		<path id="XMLID_51_" d="M564.1,740.1c-4,0-7.3-0.7-9.9-2.1c-3.3-1.8-4.9-4.6-4.9-8.4v-2h4.3v1.8c0,4.5,3.5,6.7,10.5,6.7
			c2.6,0,4.6-0.4,6.2-1.1c1.9-0.8,2.9-2,2.9-3.6c0-1.2-0.3-2-0.9-2.5c-0.6-0.5-1.6-1-3.2-1.4c-0.9-0.2-3-0.7-6.3-1.3
			c-3.9-0.8-6.6-1.5-8-2.2c-3.1-1.5-4.6-3.7-4.6-6.6c0-5.5,4.3-8.2,12.9-8.2c9,0,13.5,3.7,13.6,11h-4.2c-0.2-3.1-1.1-5.1-2.8-6
			c-1.5-0.8-3.7-1.2-6.7-1.2c-5.8,0-8.6,1.4-8.6,4.3c0,1.4,0.7,2.4,2.1,3.1c1.1,0.5,3.1,1,5.9,1.5c5.5,0.9,9.2,1.9,11.1,3
			c2.5,1.4,3.8,3.6,3.8,6.6c0,3-1.6,5.2-4.8,6.7C570.3,739.5,567.4,740.1,564.1,740.1z"/>
		<path id="XMLID_53_" d="M192.4,793.2l-4.3-8.9h-14.9l-4.4,8.9H164l15.2-30.2h3.3l14.6,30.2H192.4z M180.8,769.3l-5.6,11.1h11.1
			L180.8,769.3z"/>
		<path id="XMLID_56_" d="M232.2,771.5c-1.3-1.8-2.8-3.1-4.4-3.8c-1.7-0.8-3.7-1.1-6.2-1.1c-4,0-7.2,1-9.5,3.1
			c-2.3,2.1-3.5,4.9-3.5,8.4c0,3.5,1.1,6.3,3.3,8.4s5.3,3.1,9.2,3.1c2.3,0,4.4-0.4,6-1.2c1.7-0.8,3.2-2.1,4.7-3.8l3.7,2.2
			c-3.7,4.5-8.5,6.7-14.4,6.7c-5.1,0-9.2-1.4-12.3-4.1c-3.1-2.7-4.6-6.4-4.6-11.1c0-4.8,1.6-8.6,4.7-11.4c3.2-2.8,7.3-4.2,12.6-4.2
			c6.1,0,10.9,2.2,14.2,6.6L232.2,771.5z"/>
		<path id="XMLID_58_" d="M270.6,793.2l-4.3-8.9h-14.9l-4.4,8.9h-4.8l15.2-30.2h3.3l14.6,30.2H270.6z M259,769.3l-5.6,11.1h11.1
			L259,769.3z"/>
		<path id="XMLID_61_" d="M306.9,789.4c-3.1,2.5-7.4,3.8-12.7,3.8h-11.5V763h13.2c5.3,0,9.3,1.4,12,4.1c2.7,2.6,4,6.3,4,11.1
			C312,783,310.3,786.8,306.9,789.4z M304.9,769.8c-2-2-5-2.9-9-2.9H287v22.5h7.3c4.3,0,7.6-0.9,9.9-2.8c2.3-1.9,3.5-4.7,3.5-8.4
			S306.8,771.7,304.9,769.8z"/>
		<path id="XMLID_64_" d="M322,793.2V763h25v3.9h-20.8v8.7h18.4v3.9h-18.4v9.9h21v3.9H322z"/>
		<path id="XMLID_66_" d="M386.5,793.2v-21.3L375,793.2h-3.1l-11.5-21.3v21.3h-4.3V763h4.2l13.2,24.3l13.2-24.3h4.2v30.2H386.5z"/>
		<path id="XMLID_68_" d="M416.7,779v14.3h-4.3V779l-15.6-16h5.7l12.1,12.3l12.1-12.3h5.6L416.7,779z"/>
	</g>
</g>
</svg>
